<svg xmlns="http://www.w3.org/2000/svg" font-family="-apple-system,BlinkMacSystemFont,'Segoe UI',Roboto,Helvetica,Arial,sans-serif" viewBox="0 0 800 480"><defs><linearGradient id="of" x1="0" x2="0" y1="0" y2="1"><stop offset="0%" stop-color="#10b981"/><stop offset="100%" stop-color="#059669"/></linearGradient><linearGradient id="oc" x1="0" x2="0" y1="0" y2="1"><stop offset="0%" stop-color="#6366f1"/><stop offset="100%" stop-color="#4f46e5"/></linearGradient><linearGradient id="lc" x1="0" x2="0" y1="0" y2="1"><stop offset="0%" stop-color="#f59e0b"/><stop offset="100%" stop-color="#d97706"/></linearGradient></defs><rect width="800" height="480" fill="#0f172a" rx="12"/><text x="400" y="36" fill="#f1f5f9" font-size="16" font-weight="700" text-anchor="middle">Feature Coverage Comparison</text><text x="400" y="54" fill="#94a3b8" font-size="11" text-anchor="middle">Counted from public documentation and source code analysis</text><rect width="12" height="12" x="220" y="68" fill="url(#of)" rx="2"/><text x="237" y="79" fill="#e2e8f0" font-size="11" font-weight="600">OpenFang</text><rect width="12" height="12" x="320" y="68" fill="url(#oc)" rx="2"/><text x="337" y="79" fill="#e2e8f0" font-size="11">OpenClaw</text><rect width="12" height="12" x="420" y="68" fill="url(#lc)" rx="2"/><text x="437" y="79" fill="#e2e8f0" font-size="11">LangChain</text><line x1="100" x2="760" y1="105" y2="105" stroke="#1e293b" stroke-width="1"/><line x1="100" x2="760" y1="400" y2="400" stroke="#334155" stroke-width="1"/><text x="165" y="425" fill="#94a3b8" font-size="10" text-anchor="middle">Channels</text><text x="275" y="425" fill="#94a3b8" font-size="10" text-anchor="middle">Skills</text><text x="385" y="425" fill="#94a3b8" font-size="10" text-anchor="middle">Tools</text><text x="495" y="425" fill="#94a3b8" font-size="10" text-anchor="middle">Providers</text><text x="605" y="425" fill="#94a3b8" font-size="10" text-anchor="middle">API Endpoints</text><text x="715" y="425" fill="#94a3b8" font-size="10" text-anchor="middle">Tests</text><text x="95" y="403" fill="#475569" font-size="9" text-anchor="end">0</text><text x="95" y="109" fill="#475569" font-size="9" text-anchor="end">max</text><rect width="24" height="284" x="130" y="112" fill="url(#of)" opacity=".95" rx="3"/><text x="142" y="107" fill="#10b981" font-size="11" font-weight="700" text-anchor="middle">40</text><rect width="24" height="270" x="158" y="126" fill="url(#oc)" opacity=".85" rx="3"/><text x="170" y="121" fill="#818cf8" font-size="10" text-anchor="middle">38</text><rect width="24" height="0" x="186" y="396" fill="url(#lc)" rx="3"/><text x="198" y="393" fill="#fbbf24" font-size="10" text-anchor="middle">0</text><rect width="24" height="284" x="240" y="112" fill="url(#of)" opacity=".95" rx="3"/><text x="252" y="107" fill="#10b981" font-size="11" font-weight="700" text-anchor="middle">60</text><rect width="24" height="270" x="268" y="126" fill="url(#oc)" opacity=".85" rx="3"/><text x="280" y="121" fill="#818cf8" font-size="10" text-anchor="middle">57</text><rect width="24" height="0" x="296" y="396" fill="url(#lc)" rx="3"/><text x="308" y="393" fill="#fbbf24" font-size="10" text-anchor="middle">0</text><rect width="24" height="284" x="350" y="112" fill="url(#of)" opacity=".95" rx="3"/><text x="362" y="107" fill="#10b981" font-size="11" font-weight="700" text-anchor="middle">53</text><rect width="24" height="78" x="378" y="318" fill="url(#oc)" opacity=".85" rx="3"/><text x="390" y="313" fill="#818cf8" font-size="10" text-anchor="middle">15</text><rect width="24" height="44" x="406" y="352" fill="url(#lc)" opacity=".85" rx="3"/><text x="418" y="347" fill="#fbbf24" font-size="10" text-anchor="middle">~8</text><rect width="24" height="284" x="460" y="112" fill="url(#of)" opacity=".95" rx="3"/><text x="472" y="107" fill="#10b981" font-size="11" font-weight="700" text-anchor="middle">27</text><rect width="24" height="31" x="488" y="365" fill="url(#oc)" opacity=".85" rx="3"/><text x="500" y="360" fill="#818cf8" font-size="10" text-anchor="middle">3</text><rect width="24" height="201" x="516" y="195" fill="url(#lc)" opacity=".85" rx="3"/><text x="528" y="190" fill="#fbbf24" font-size="10" text-anchor="middle">~20</text><rect width="24" height="284" x="570" y="112" fill="url(#of)" opacity=".95" rx="3"/><text x="582" y="107" fill="#10b981" font-size="11" font-weight="700" text-anchor="middle">140</text><rect width="24" height="57" x="598" y="339" fill="url(#oc)" opacity=".85" rx="3"/><text x="610" y="334" fill="#818cf8" font-size="10" text-anchor="middle">~30</text><rect width="24" height="0" x="626" y="396" fill="url(#lc)" rx="3"/><text x="638" y="393" fill="#fbbf24" font-size="10" text-anchor="middle">N/A</text><rect width="24" height="284" x="680" y="112" fill="url(#of)" opacity=".95" rx="3"/><text x="692" y="107" fill="#10b981" font-size="10" font-weight="700" text-anchor="middle">1759</text><rect width="24" height="26" x="708" y="370" fill="url(#oc)" opacity=".5" rx="3"/><text x="720" y="365" fill="#818cf8" font-size="10" text-anchor="middle">?</text><rect width="24" height="26" x="736" y="370" fill="url(#lc)" opacity=".5" rx="3"/><text x="748" y="365" fill="#fbbf24" font-size="10" text-anchor="middle">?</text><text x="400" y="460" fill="#64748b" font-size="10" text-anchor="middle">All counts verified from source code. OpenClaw and LangChain counts from public documentation.</text></svg>